<svg width="240" height="80" viewBox="0 0 240 80" xmlns="http://www.w3.org/2000/svg">
  <!-- Sombra -->
  <path d="M20 35
           Q35 15, 60 20
           Q75 8, 100 17
           Q120 4, 140 17
           Q160 4, 180 20
           Q200 8, 220 35
           Q235 45, 220 60
           Q235 70, 200 75
           Q180 80, 160 75
           Q140 80, 120 75
           Q100 80, 75 75
           Q60 80, 35 70
           Q15 60, 20 35 Z"
        fill="rgba(0,0,0,0.25)" transform="translate(2,2)" />
  
  <!-- Forma principal -->
  <path d="M20 35
           Q35 15, 60 20
           Q75 8, 100 17
           Q120 4, 140 17
           Q160 4, 180 20
           Q200 8, 220 35
           Q235 45, 220 60
           Q235 70, 200 75
           Q180 80, 160 75
           Q140 80, 120 75
           Q100 80, 75 75
           Q60 80, 35 70
           Q15 60, 20 35 Z"
        fill="white" stroke="black" stroke-width="3" />
</svg>
